<svg width="32" height="32" viewBox="0 0 32 32" fill="none" xmlns="http://www.w3.org/2000/svg">
<g clip-path="url(#clip0_1_464)">
<path d="M2 29V3.00002C2 2.7348 2.10536 2.48045 2.29289 2.29291C2.48043 2.10537 2.73478 2.00002 3 2.00002H18V6.00002C18 6.53045 18.2107 7.03916 18.5858 7.41423C18.9609 7.7893 19.4696 8.00002 20 8.00002H24V11H26V7.00002C26.0008 6.86841 25.9755 6.73795 25.9258 6.61611C25.876 6.49427 25.8027 6.38346 25.71 6.29002L19.71 0.290017C19.6166 0.197335 19.5057 0.12401 19.3839 0.0742455C19.2621 0.0244809 19.1316 -0.000744179 19 1.67143e-05H3C2.20435 1.67143e-05 1.44129 0.316087 0.87868 0.878696C0.31607 1.44131 0 2.20437 0 3.00002L0 29C0 29.7957 0.31607 30.5587 0.87868 31.1213C1.44129 31.6839 2.20435 32 3 32H10V30H3C2.73478 30 2.48043 29.8947 2.29289 29.7071C2.10536 29.5196 2 29.2652 2 29Z" fill="black" style="fill:black;fill-opacity:1;"/>
<path d="M20.11 16.55L19 18.76L17.89 16.55C17.8069 16.3851 17.6798 16.2464 17.5227 16.1493C17.3656 16.0522 17.1847 16.0006 17 16H15V18H16.38L17.88 21L16.38 24H15V26H17C17.1847 25.9994 17.3656 25.9478 17.5227 25.8507C17.6798 25.7536 17.8069 25.6149 17.89 25.45L19 23.24L20.11 25.45C20.1931 25.6149 20.3202 25.7536 20.4773 25.8507C20.6344 25.9478 20.8153 25.9994 21 26H23V24H21.62L20.12 21L21.62 18H23V16H21C20.8153 16.0006 20.6344 16.0522 20.4773 16.1493C20.3202 16.2464 20.1931 16.3851 20.11 16.55Z" fill="black" style="fill:black;fill-opacity:1;"/>
<path d="M6 18H9V26H11V18H14V16H6V18Z" fill="black" style="fill:black;fill-opacity:1;"/>
<path d="M24 16V18H27V26H29V18H32V16H24Z" fill="black" style="fill:black;fill-opacity:1;"/>
</g>
<defs>
<clipPath id="clip0_1_464">
<rect width="32" height="32" fill="white" style="fill:white;fill-opacity:1;"/>
</clipPath>
</defs>
</svg>
