<svg width="32" height="32" viewBox="0 0 32 32" fill="none" xmlns="http://www.w3.org/2000/svg">
<g clip-path="url(#clip0_1_352)">
<path d="M2 29V3.00002C2 2.7348 2.10536 2.48045 2.29289 2.29291C2.48043 2.10537 2.73478 2.00002 3 2.00002H18V6.00002C18 6.53045 18.2107 7.03916 18.5858 7.41423C18.9609 7.7893 19.4696 8.00002 20 8.00002H24V11H26V7.00002C26.0008 6.86841 25.9755 6.73795 25.9258 6.61611C25.876 6.49427 25.8027 6.38346 25.71 6.29002L19.71 0.290017C19.6166 0.197335 19.5057 0.12401 19.3839 0.0742455C19.2621 0.0244809 19.1316 -0.000744179 19 1.67143e-05H3C2.20435 1.67143e-05 1.44129 0.316087 0.87868 0.878696C0.31607 1.44131 0 2.20437 0 3.00002L0 29C0 29.7957 0.31607 30.5587 0.87868 31.1213C1.44129 31.6839 2.20435 32 3 32H10V30H3C2.73478 30 2.48043 29.8947 2.29289 29.7071C2.10536 29.5196 2 29.2652 2 29Z" fill="black" style="fill:black;fill-opacity:1;"/>
<path d="M12 16H8C7.73478 16 7.48043 16.1054 7.29289 16.2929C7.10536 16.4804 7 16.7348 7 17V25C7 25.2652 7.10536 25.5196 7.29289 25.7071C7.48043 25.8946 7.73478 26 8 26H12C12.5304 26 13.0391 25.7893 13.4142 25.4142C13.7893 25.0391 14 24.5304 14 24V18C14 17.4696 13.7893 16.9609 13.4142 16.5858C13.0391 16.2107 12.5304 16 12 16ZM12 24H9V18H12V24Z" fill="black" style="fill:black;fill-opacity:1;"/>
<path d="M19 16C17.9391 16 16.9217 16.4214 16.1716 17.1716C15.4214 17.9217 15 18.9391 15 20V22C15 23.0609 15.4214 24.0783 16.1716 24.8284C16.9217 25.5786 17.9391 26 19 26C20.0609 26 21.0783 25.5786 21.8284 24.8284C22.5786 24.0783 23 23.0609 23 22V20C23 18.9391 22.5786 17.9217 21.8284 17.1716C21.0783 16.4214 20.0609 16 19 16ZM21 22C21 22.5304 20.7893 23.0391 20.4142 23.4142C20.0391 23.7893 19.5304 24 19 24C18.4696 24 17.9609 23.7893 17.5858 23.4142C17.2107 23.0391 17 22.5304 17 22V20C17 19.4696 17.2107 18.9609 17.5858 18.5858C17.9609 18.2107 18.4696 18 19 18C19.5304 18 20.0391 18.2107 20.4142 18.5858C20.7893 18.9609 21 19.4696 21 20V22Z" fill="black" style="fill:black;fill-opacity:1;"/>
<path d="M28 24C27.4696 24 26.9609 23.7893 26.5858 23.4142C26.2107 23.0391 26 22.5304 26 22V20C26 19.4696 26.2107 18.9609 26.5858 18.5858C26.9609 18.2107 27.4696 18 28 18C28.5304 18 29.0391 18.2107 29.4142 18.5858C29.7893 18.9609 30 19.4696 30 20H32C32 18.9391 31.5786 17.9217 30.8284 17.1716C30.0783 16.4214 29.0609 16 28 16C26.9391 16 25.9217 16.4214 25.1716 17.1716C24.4214 17.9217 24 18.9391 24 20V22C24 23.0609 24.4214 24.0783 25.1716 24.8284C25.9217 25.5786 26.9391 26 28 26C29.0609 26 30.0783 25.5786 30.8284 24.8284C31.5786 24.0783 32 23.0609 32 22H30C30 22.5304 29.7893 23.0391 29.4142 23.4142C29.0391 23.7893 28.5304 24 28 24Z" fill="black" style="fill:black;fill-opacity:1;"/>
</g>
<defs>
<clipPath id="clip0_1_352">
<rect width="32" height="32" fill="white" style="fill:white;fill-opacity:1;"/>
</clipPath>
</defs>
</svg>
